Coordinates
version=1
nRows=17
nColumns=40
inDegrees=yes

Units are S.I. units (second, meters, Newtons, ...)
Angles are in degrees.

endheader
time	pelvis_tilt	pelvis_list	pelvis_rotation	pelvis_tx	pelvis_ty	pelvis_tz	hip_flexion_r	hip_adduction_r	hip_rotation_r	knee_angle_r	knee_angle_r_beta	ankle_angle_r	subtalar_angle_r	mtp_angle_r	hip_flexion_l	hip_adduction_l	hip_rotation_l	knee_angle_l	knee_angle_l_beta	ankle_angle_l	subtalar_angle_l	mtp_angle_l	lumbar_extension	lumbar_bending	lumbar_rotation	arm_flex_r	arm_add_r	arm_rot_r	elbow_flex_r	pro_sup_r	wrist_flex_r	wrist_dev_r	arm_flex_l	arm_add_l	arm_rot_l	elbow_flex_l	pro_sup_l	wrist_flex_l	wrist_dev_l
     36.78250000	     -6.94828523	     -5.96380813	     -1.77269395	      1.07842494	      0.90678259	      0.51917308	     29.43644392	      3.37288266	    -11.52855661	     26.18896661	     26.18896661	      5.03328657	     -4.67823582	     -0.69582762	     10.39018848	    -14.22387661	     -3.39899108	     49.97385641	     49.97385641	     12.14315144	    -16.96768768	     -0.92281595	    -12.99014534	      7.22907653	      1.73069369	     -2.42864454	    -12.46968385	     -3.37352035	     28.43039609	     46.23601584	      0.00000000	      0.00000000	      4.65997798	    -13.99058441	    -11.92154707	     98.06735938	     48.54438845	      0.00000000	      0.00000000
     36.79428571	     -6.86282361	     -5.88281725	     -1.62887774	      1.07794447	      0.90886499	      0.52094180	     28.52951237	      3.35770890	    -11.78658619	     25.74253712	     25.74253712	      5.41111371	     -4.16134825	     -0.84275974	     12.53568672	    -14.13665722	     -1.86549795	     53.69599479	     53.69599479	     12.11817441	    -16.98799795	      3.39031912	    -13.09675988	      7.12501416	      2.20787533	     -0.82505148	    -12.95614732	     -2.63843275	     29.10870299	     46.16497129	      0.00000000	      0.00000000	      4.98572384	    -13.07892146	    -10.99123477	     93.04647437	     48.39270824	      0.00000000	      0.00000000
     36.80607143	     -6.84562589	     -5.91972229	     -1.42248819	      1.07718150	      0.91070539	      0.52269541	     27.66082992	      3.46838884	    -12.10072019	     25.18751099	     25.18751099	      5.71807755	     -3.74125671	     -0.90150570	     14.70358440	    -14.21481661	     -0.46455711	     56.87343871	     56.87343871	     11.00212871	    -17.35695682	      3.99865937	    -13.18410988	      7.07283354	      1.65831139	      1.34466199	    -13.21203182	     -2.64816212	     30.12972397	     46.14075486	      0.00000000	      0.00000000	      3.99312982	    -12.84412737	    -10.58078518	     89.89627810	     48.30026811	      0.00000000	      0.00000000
     36.81785714	     -6.73741863	     -5.78400619	     -1.27112033	      1.07622665	      0.91270401	      0.52427932	     26.74229196	      3.37678488	    -12.41999370	     24.71564858	     24.71564858	      6.04354403	     -3.06225679	     -1.08911858	     16.75099364	    -14.04191284	      0.74199466	     59.73144124	     59.73144124	     10.79421468	    -17.46980035	      6.12918054	    -13.27764081	      6.88038352	      1.73239601	      3.32728241	    -13.60092142	     -2.34533805	     30.98590525	     46.09910242	      0.00000000	      0.00000000	      4.43905872	    -12.09032214	    -10.21308824	     83.75080486	     48.16270659	      0.00000000	      0.00000000
     36.82964286	     -6.75789155	     -5.82123968	     -1.08935389	      1.07483397	      0.91438634	      0.52591250	     25.95473335	      3.49561235	    -12.75960716	     24.13808313	     24.13808313	      6.17962864	     -2.62688900	     -1.09880775	     19.00811380	    -14.05734181	      1.93721747	     62.25119273	     62.25119273	     10.64668828	    -17.60410108	      7.58287491	    -13.36430928	      6.80341137	      1.75170476	      5.30129010	    -13.99326760	     -2.22055487	     32.17792685	     46.05522062	      0.00000000	      0.00000000	      4.39335965	    -11.64398702	     -9.44784531	     78.92091973	     48.02047619	      0.00000000	      0.00000000
     36.84142857	     -6.79557797	     -5.85396836	     -0.90252455	      1.07332811	      0.91589711	      0.52746531	     25.17949336	      3.62287313	    -13.03073460	     23.54900920	     23.54900920	      6.46200140	     -2.18918683	     -1.12218030	     21.30340648	    -14.08081747	      2.96082478	     64.41425542	     64.41425542	     10.95265848	    -17.67615615	      9.56401738	    -13.28776875	      6.78267484	      2.43895220	      6.68440071	    -14.63970288	     -2.03792259	     33.66786337	     45.98827689	      0.00000000	      0.00000000	      5.31880575	    -10.94179806	     -8.36138678	     72.65873064	     47.84092984	      0.00000000	      0.00000000
     36.85321429	     -6.76674354	     -5.88373077	     -0.71355901	      1.07161080	      0.91735437	      0.52906038	     24.41184906	      3.75423143	    -13.27245620	     23.06880415	     23.06880415	      6.68859199	     -1.87428219	     -1.08386258	     23.44850427	    -14.15149755	      3.79440940	     66.01261787	     66.01261787	     10.96811736	    -17.89761406	     10.23020858	    -13.36959410	      6.67561961	      2.26307812	      8.76471669	    -14.93357503	     -2.03424826	     35.27755516	     45.93535288	      0.00000000	      0.00000000	      5.21525510	    -10.74452985	     -7.73108440	     67.68321469	     47.71159727	      0.00000000	      0.00000000
     36.86500000	     -6.82638008	     -5.96952833	     -0.52846752	      1.06966532	      0.91857017	      0.53061086	     23.71657509	      3.97143851	    -13.45087865	     22.49713099	     22.49713099	      6.93354164	     -1.61863508	     -0.92211109	     25.69894700	    -14.31507199	      4.49369135	     67.19278492	     67.19278492	     11.27159148	    -18.04783623	     11.27479365	    -13.34310402	      6.65461291	      2.79739173	     10.16904649	    -15.56401316	     -2.01105337	     37.47357231	     45.84927882	      0.00000000	      0.00000000	      5.93785467	    -10.23999901	     -6.72697597	     61.58507392	     47.54625773	      0.00000000	      0.00000000
     36.87678571	     -6.82277007	     -6.00667278	     -0.34595217	      1.06768083	      0.91972883	      0.53210789	     23.02230062	      4.12872184	    -13.59358937	     22.05590838	     22.05590838	      7.19890600	     -1.42640889	     -0.86140145	     27.77039216	    -14.45931839	      5.00112056	     67.81116300	     67.81116300	     11.41718174	    -18.27307676	     11.73430291	    -13.37524553	      6.54631017	      2.72528394	     12.29948841	    -15.85796320	     -1.86198184	     39.03351211	     45.79165379	      0.00000000	      0.00000000	      5.97091575	     -9.96375516	     -6.38786343	     56.35103414	     47.44438802	      0.00000000	      0.00000000
     36.88857143	     -6.82052473	     -6.05307964	     -0.16774468	      1.06562799	      0.92080051	      0.53350630	     22.32343573	      4.31312489	    -13.70072564	     21.57871670	     21.57871670	      7.46966717	     -1.31203380	     -0.77436773	     29.75418959	    -14.63365635	      5.36205474	     67.92461211	     67.92461211	     11.66227341	    -18.42767506	     12.39246824	    -13.39309058	      6.45459983	      2.78923565	     14.27645575	    -16.23220658	     -1.58226937	     40.96541428	     45.71274785	      0.00000000	      0.00000000	      6.08156495	     -9.64807887	     -6.11685030	     51.02803590	     47.34987917	      0.00000000	      0.00000000
     36.90035714	     -6.77060743	     -6.11050269	      0.04150795	      1.06360633	      0.92174380	      0.53478745	     21.53820188	      4.51667803	    -13.74104162	     21.04095992	     21.04095992	      7.76193657	     -1.21769529	     -0.72816219	     31.58506561	    -14.83610648	      5.59917554	     67.54626246	     67.54626246	     11.71582427	    -18.57557091	     12.62098686	    -13.50416796	      6.35650907	      2.24938053	     16.74671751	    -16.14007401	     -1.63371153	     42.73399320	     45.66319903	      0.00000000	      0.00000000	      4.88334565	     -9.76276384	     -5.90482201	     48.33357049	     47.28535650	      0.00000000	      0.00000000
     36.91214286	     -6.72212120	     -6.04979474	      0.19649655	      1.06154964	      0.92265821	      0.53586043	     20.84914740	      4.57018055	    -13.74268634	     20.68672518	     20.68672518	      8.06121610	     -1.12011065	     -0.78945494	     33.23231579	    -14.89606167	      5.63644452	     66.65823244	     66.65823244	     11.98197795	    -18.66095369	     13.65206132	    -13.54543594	      6.16701128	      2.72952328	     18.37851301	    -16.87896097	     -0.72287380	     45.06709047	     45.54125583	      0.00000000	      0.00000000	      5.70812648	     -9.18053859	     -5.98738484	     41.68655032	     47.22435461	      0.00000000	      0.00000000
     36.92392857	     -6.63423246	     -6.01769864	      0.37657316	      1.05956333	      0.92344232	      0.53674643	     20.05990016	      4.65859497	    -13.73279154	     20.22712998	     20.22712998	      8.39853334	     -1.03794360	     -0.89764177	     34.68361094	    -14.95860430	      5.60859774	     65.31495713	     65.31495713	     12.04777786	    -18.72213603	     14.25227400	    -13.63759003	      6.01782820	      2.77577888	     20.20192622	    -17.27448927	     -0.26471707	     47.90196546	     45.43061744	      0.00000000	      0.00000000	      5.26813016	     -8.96542956	     -6.22799473	     37.78836462	     47.19433902	      0.00000000	      0.00000000
     36.93571429	     -6.51824198	     -6.00752364	      0.56828449	      1.05762357	      0.92417373	      0.53746761	     19.20560550	      4.76988543	    -13.72730237	     19.70773294	     19.70773294	      8.73149943	     -0.93490009	     -0.93604191	     35.91379401	    -15.01327462	      5.52033822	     63.49681919	     63.49681919	     11.91817570	    -18.73804131	     14.54844769	    -13.78197022	      5.89609676	      2.40721758	     22.60592732	    -17.12130820	     -0.32371311	     49.84840766	     45.37754070	      0.00000000	      0.00000000	      3.83883748	     -9.06301918	     -6.21092464	     35.89849276	     47.15543624	      0.00000000	      0.00000000
     36.94750000	     -6.43864727	     -5.98577544	      0.75445847	      1.05565396	      0.92469699	      0.53798901	     18.42970849	      4.83200063	    -13.76831867	     19.26586770	     19.26586770	      9.02367091	     -0.75057458	     -1.33690339	     37.01580849	    -15.01833313	      5.35526156	     61.29339432	     61.29339432	     11.67425184	    -18.70569057	     14.81673206	    -13.84165213	      5.81771320	      2.65992522	     24.21265530	    -17.83043706	      0.66279527	     53.05813912	     45.24042185	      0.00000000	      0.00000000	      3.64276286	     -8.75232896	     -6.67213031	     31.89839329	     47.16560216	      0.00000000	      0.00000000
     36.95928571	     -6.35661361	     -6.01027661	      0.95698975	      1.05370204	      0.92516142	      0.53831522	     17.61014743	      4.94124384	    -13.86219403	     18.74000264	     18.74000264	      9.32215431	     -0.57344864	     -1.45806017	     37.95757858	    -14.99580683	      5.21826253	     58.75629611	     58.75629611	     11.33124490	    -18.60773925	     15.05502402	    -13.93384384	      5.77841265	      2.43617937	     26.45005857	    -17.68908087	      0.60386737	     55.26696524	     45.18108306	      0.00000000	      0.00000000	      2.14414641	     -8.79912575	     -6.80086920	     30.43442137	     47.14495348	      0.00000000	      0.00000000
     36.97107143	     -6.25614087	     -6.04535028	      1.16607831	      1.05181131	      0.92555924	      0.53842469	     16.73529861	      5.05028264	    -13.96987534	     18.16256640	     18.16256640	      9.63122910	     -0.26865151	     -1.63465498	     38.67916048	    -14.89767929	      5.10826547	     55.88820427	     55.88820427	     10.95182323	    -18.46299413	     15.19664212	    -14.02202603	      5.78230779	      2.26716246	     28.56791845	    -17.62301712	      0.67508122	     57.63927652	     45.11003561	      0.00000000	      0.00000000	      0.73442254	     -8.81380652	     -6.90915097	     29.09279457	     47.12642460	      0.00000000	      0.00000000
